<svg xmlns="http://www.w3.org/2000/svg" version="1.1" xmlns:xlink="http://www.w3.org/1999/xlink" xmlns:svgjs="http://svgjs.dev/svgjs" width="1500" height="1500" viewBox="0 0 1500 1500"><rect width="1500" height="1500" fill="#ffffff"></rect><g transform="matrix(0.6666666666666666,0,0,0.6666666666666666,249.39439228096353,407.5223163759898)"><svg viewBox="0 0 396 271" data-background-color="#0c1d36" preserveAspectRatio="xMidYMid meet" height="1026" width="1500" xmlns="http://www.w3.org/2000/svg" xmlns:xlink="http://www.w3.org/1999/xlink"><g id="tight-bounds" transform="matrix(1,0,0,1,0.24017934326158752,0.18925769313852925)"><svg viewBox="0 0 395.5199999999999 270.6214846137229" height="270.6214846137229" width="395.5199999999999"><g><svg viewBox="0 0 395.5199999999999 270.6214846137229" height="270.6214846137229" width="395.5199999999999"><g transform="matrix(1,0,0,1,0,178.04057614993468)"><svg viewBox="0 0 395.5199999999999 92.58090846378822" height="92.58090846378822" width="395.5199999999999"><g id="textblocktransform"><svg viewBox="0 0 395.5199999999999 92.58090846378822" height="92.58090846378822" width="395.5199999999999" id="textblock"><g><svg viewBox="0 0 395.5199999999999 92.58090846378822" height="92.58090846378822" width="395.5199999999999"><g transform="matrix(1,0,0,1,0,0)"><svg width="395.5199999999999" viewBox="-0.7878300000000028 -31.637790000000003 187.45728 43.87886" height="92.58090846378822" data-palette-color="#f9cc0b"><path d="M4.162 12.241l-0.471-2.22 12.488-24.006-16.444 3.49-0.523-2.465 20.151-4.277 0.472 2.22-12.389 23.995 16.679-3.54 0.521 2.456zM39.76 6.213v0c-1.821 0.265-3.564 0.162-5.229-0.309-1.665-0.471-3.154-1.231-4.466-2.279-1.319-1.054-2.412-2.333-3.278-3.838-0.865-1.498-1.43-3.157-1.695-4.977v0c-0.346-2.375-0.12-4.635 0.679-6.779 0.8-2.138 2.073-3.94 3.82-5.408 1.747-1.467 3.84-2.379 6.282-2.734v0c2.5-0.364 4.771-0.082 6.813 0.846 2.049 0.934 3.752 2.306 5.107 4.117 1.362 1.809 2.213 3.885 2.555 6.226v0c0.037 0.257 0.074 0.508 0.109 0.752 0.036 0.244 0.046 0.435 0.033 0.571v0l-21.75 3.17c0.43 1.797 1.177 3.338 2.24 4.626 1.071 1.292 2.356 2.25 3.855 2.874 1.507 0.629 3.071 0.826 4.694 0.589v0c1.662-0.242 3.171-0.893 4.526-1.953 1.355-1.06 2.226-2.315 2.614-3.767v0l2.993 0.363c-0.346 1.277-0.986 2.481-1.918 3.614-0.933 1.133-2.083 2.072-3.45 2.817-1.367 0.745-2.878 1.238-4.534 1.479zM28.292-6.809v0l18.781-2.737c-0.402-1.835-1.137-3.385-2.203-4.651-1.061-1.274-2.343-2.209-3.845-2.805-1.495-0.597-3.071-0.775-4.727-0.534v0c-1.662 0.242-3.118 0.862-4.367 1.86-1.249 0.997-2.2 2.264-2.852 3.801-0.658 1.538-0.921 3.227-0.787 5.066zM76.873-13.046l1.17 14.985-3.34 0.261-1.116-14.297c-0.236-3.017-0.85-5.186-1.842-6.506-0.992-1.32-2.439-1.906-4.34-1.758v0c-1.309 0.102-2.577 0.522-3.803 1.26-1.226 0.738-2.282 1.693-3.167 2.865-0.878 1.172-1.475 2.479-1.79 3.921v0l1.223 15.673-3.34 0.26-1.998-25.602 3.041-0.237 0.453 5.802c0.594-1.297 1.41-2.457 2.446-3.481 1.044-1.018 2.25-1.844 3.618-2.479 1.368-0.635 2.803-1.011 4.305-1.128v0c1.409-0.11 2.626 0.059 3.651 0.507 1.025 0.448 1.87 1.131 2.537 2.049 0.66 0.918 1.176 2.048 1.549 3.39 0.365 1.336 0.613 2.841 0.743 4.515zM82.123 1.952l-0.016-2.27 17.045-21.017-16.81 0.125-0.019-2.52 20.6-0.153 0.017 2.27-16.945 21.026 17.049-0.126 0.019 2.51zM118.058 3.17v0c-1.837-0.105-3.514-0.554-5.031-1.349-1.517-0.794-2.807-1.836-3.869-3.125-1.068-1.296-1.866-2.757-2.394-4.384-0.535-1.626-0.752-3.325-0.651-5.095v0c0.105-1.837 0.515-3.533 1.231-5.088 0.71-1.555 1.675-2.916 2.897-4.082 1.215-1.166 2.625-2.057 4.229-2.673 1.598-0.617 3.315-0.873 5.152-0.768v0c1.837 0.105 3.504 0.554 5.002 1.346 1.504 0.794 2.793 1.839 3.868 3.135 1.081 1.297 1.889 2.759 2.424 4.386 0.528 1.626 0.74 3.358 0.635 5.194v0c-0.101 1.77-0.506 3.433-1.215 4.989-0.716 1.555-1.675 2.916-2.877 4.083-1.201 1.16-2.601 2.049-4.199 2.665-1.598 0.617-3.332 0.872-5.202 0.766zM109.505-10.549v0c-0.108 1.904 0.212 3.658 0.962 5.263 0.749 1.612 1.804 2.907 3.164 3.886 1.353 0.985 2.884 1.527 4.595 1.624v0c1.704 0.097 3.288-0.273 4.751-1.111 1.463-0.838 2.666-2.028 3.609-3.571 0.943-1.542 1.467-3.248 1.574-5.118v0c0.108-1.904-0.218-3.668-0.981-5.295-0.762-1.619-1.823-2.928-3.181-3.927-1.359-0.999-2.89-1.547-4.594-1.644v0c-1.711-0.098-3.288 0.29-4.734 1.162-1.445 0.873-2.642 2.063-3.589 3.572-0.941 1.509-1.466 3.228-1.576 5.159zM147.876 6.143v0c-1.983-0.257-3.758-1.007-5.324-2.252-1.56-1.244-2.711-2.71-3.454-4.4v0l-0.64 4.939-2.975-0.385 4.619-35.683 3.322 0.43-2.013 15.551c1.361-1.585 2.911-2.803 4.648-3.654 1.73-0.852 3.657-1.14 5.779-0.866v0c1.792 0.232 3.347 0.813 4.665 1.744 1.317 0.937 2.401 2.096 3.25 3.476 0.849 1.387 1.432 2.905 1.75 4.552 0.318 1.648 0.369 3.305 0.154 4.971v0c-0.232 1.792-0.753 3.428-1.564 4.91-0.804 1.489-1.838 2.774-3.1 3.854-1.268 1.073-2.672 1.866-4.21 2.379-1.539 0.513-3.174 0.658-4.907 0.434zM147.482 3.117v0c1.369 0.177 2.674 0.064 3.916-0.34 1.242-0.404 2.35-1.04 3.322-1.909 0.98-0.868 1.777-1.884 2.391-3.049 0.614-1.157 1.005-2.387 1.174-3.69v0c0.233-1.798 0.068-3.537-0.495-5.216-0.562-1.679-1.459-3.086-2.69-4.22-1.225-1.133-2.749-1.818-4.574-2.055v0c-1.302-0.169-2.553-0.035-3.753 0.402-1.2 0.443-2.295 1.088-3.286 1.934-0.984 0.854-1.828 1.814-2.53 2.879v0l-1.026 7.924c0.012 0.896 0.246 1.763 0.702 2.602 0.457 0.832 1.066 1.58 1.827 2.243 0.755 0.662 1.567 1.215 2.438 1.656 0.87 0.449 1.731 0.728 2.584 0.839zM172.833 10.41v0c-2.059-0.415-3.906-1.137-5.541-2.166-1.634-1.036-2.956-2.377-3.964-4.022v0l1.819-2.041c1.152 1.606 2.384 2.85 3.695 3.733 1.311 0.883 2.774 1.487 4.389 1.812v0c1.961 0.395 3.635 0.321 5.023-0.223 1.38-0.538 2.219-1.549 2.518-3.032v0c0.201-1 0.058-1.824-0.43-2.474-0.495-0.65-1.263-1.257-2.306-1.821-1.043-0.564-2.296-1.193-3.761-1.889v0c-1.641-0.834-2.996-1.634-4.066-2.401-1.068-0.773-1.818-1.628-2.248-2.564-0.429-0.943-0.51-2.075-0.245-3.395v0c0.33-1.64 1.013-2.918 2.047-3.831 1.042-0.919 2.335-1.515 3.88-1.79 1.551-0.272 3.212-0.23 4.983 0.127v0c1.928 0.388 3.572 1.039 4.932 1.952 1.361 0.907 2.398 2.003 3.111 3.289v0l-2.046 1.903c-0.694-1.214-1.611-2.198-2.751-2.951-1.135-0.745-2.461-1.271-3.977-1.576v0c-1.033-0.208-2.044-0.269-3.034-0.183-0.99 0.086-1.845 0.383-2.566 0.891-0.721 0.508-1.192 1.31-1.414 2.409v0c-0.182 0.902-0.097 1.647 0.254 2.234 0.351 0.588 0.943 1.142 1.777 1.663 0.833 0.521 1.871 1.108 3.114 1.76v0c1.798 0.899 3.353 1.756 4.664 2.571 1.305 0.814 2.262 1.72 2.869 2.72 0.603 0.992 0.752 2.243 0.448 3.752v0c-0.474 2.353-1.729 4.011-3.766 4.975-2.037 0.963-4.506 1.153-7.408 0.568z" opacity="1" transform="matrix(1,0,0,1,0,0)" fill="#000000" class="wordmark-text-0" data-fill-palette-color="primary" id="text-0"></path></svg></g></svg></g></svg></g></svg></g><g transform="matrix(1,0,0,1,118.16378908532096,0)"><svg viewBox="0 0 159.192421829358 149.79590989440933" height="149.79590989440933" width="159.192421829358"><g><svg xmlns="http://www.w3.org/2000/svg" data-name="Layer 1" viewBox="15.98765457675337 18 68.01464074860671 64" x="0" y="0" height="149.79590989440933" width="159.192421829358" class="icon-icon-0" data-fill-palette-color="accent" id="icon-0"><g fill="#f9f9f9" data-fill-palette-color="accent"><circle cx="49.99" cy="26" r="8.0" fill="#000000" data-fill-palette-color="accent"></circle><path d="M63.2 39.6L62 38H38l-1.2 1.6A16.08 16.08 0 0 1 24 46H20v8h4a24.1 24.1 0 0 0 14-4.53V60H37a11 11 0 0 0 0 22H63a11 11 0 0 0 0-22H62V49.47A24.1 24.1 0 0 0 76 54h4V46H76A16.08 16.08 0 0 1 63.2 39.6ZM46 46h8V60H46ZM63 68a3 3 0 0 1 0 6H37a3 3 0 0 1 0-6Z" fill="#000000" data-fill-palette-color="accent"></path><path d="M83.12 28.57l-3.8-1.9-1.87-3.73a1.64 1.64 0 0 0-2.93 0l-1.87 3.73-3.77 1.88a1.62 1.62 0 0 0 0 2.9l3.77 1.88 1.87 3.73a1.64 1.64 0 0 0 2.93 0l1.87-3.73 3.8-1.9A1.6 1.6 0 0 0 83.12 28.57Z" fill="#000000" data-fill-palette-color="accent"></path><path d="M25.47 37.07l1.86-3.73 3.76-1.88a1.62 1.62 0 0 0 0-2.9l-3.76-1.88-1.86-3.73a1.64 1.64 0 0 0-2.93 0l-1.86 3.73-3.8 1.9a1.6 1.6 0 0 0 0 2.87l3.8 1.9 1.86 3.73A1.64 1.64 0 0 0 25.47 37.07Z" fill="#000000" data-fill-palette-color="accent"></path></g></svg></g></svg></g><g></g></svg></g><defs></defs></svg><rect width="395.5199999999999" height="270.6214846137229" fill="none" stroke="none" visibility="hidden"></rect></g></svg></g></svg>